<svg xmlns="http://www.w3.org/2000/svg" width="16" height="16" viewBox="0 0 3459 3459">
  <g transform="translate(452,0)">
    <path d="m 931.307,616.606 c 17.907,330.694 -50.115,652.639 -121.669,974.224 -32.538,214.793 54.303,326.277 259.406,335.421 328.783,-6.5 634.362,-97.794 942.434,-179.975 340.839,4.669 295.869,286.854 444.808,530.639 -179.626,2.537 -296.954,-306.731 -348.325,-247.77 73.382,112.337 84.653,168.436 89.441,247.77 -71.049,128.154 -131.178,243.622 -141.172,300.851 34.458,264.967 26.831,517.496 0,764.349 h -207.135 c 29.097,-383.544 -51.038,-609.827 -242.023,-676.521 -260.094,87.945 -564.845,108.107 -797.434,0 v 631.629 H 606.472 c 29.631,-388.291 -29.877,-616.022 -158.393,-719.457 -158.482,-217.485 -213.301,-176.181 -241.09,-548.621 -24.678,-330.737 300.397,-619.96 282.796,-1080.49 -85.689,-18.743 -200.409,-1.502 -360.349,0 C 67.02,831.848 101.18,742.855 206.989,680.925 427.503,585.73 517.124,530.458 606.259,506.451 m 0.213,0 C 651.158,465.455 727.381,281.399 716.765,116.506 873.563,228.88 907.13,396.177 931.307,616.603" fill="currentColor" stroke="none"/>
    <path d="m 1404.38,1325.67 -453.267,90.711 97.466,487.019 453.266,-90.71 z" fill="#a9cf37" stroke="none"/>
    <path d="m 2013.16,1197.54 -453.267,90.711 97.466,487.019 453.267,-90.711 z" fill="#a9cf37" stroke="none"/>
    <path d="m 1635.44,729.21 -453.266,90.71 97.465,487.02 453.267,-90.711 z" fill="#a9cf37" stroke="none"/>
  </g>
</svg>
